<?xml version="1.0" encoding="utf-8"?>
<!-- Generator: Adobe Illustrator 21.1.0, SVG Export Plug-In . SVG Version: 6.00 Build 0)  -->
<svg version="1.1" id="Livello_1" xmlns="http://www.w3.org/2000/svg" xmlns:xlink="http://www.w3.org/1999/xlink" x="0px" y="0px"
	 viewBox="0 0 1026 423" style="enable-background:new 0 0 1026 423;" xml:space="preserve">
<style type="text/css">
	.st0{fill:url(#SVGID_1_);}
	.st1{fill:url(#SVGID_2_);}
	.st2{fill:#FEBF88;}
	.st3{fill:#FE8276;}
</style>
<g>
	<g>
		
			<linearGradient id="SVGID_1_" gradientUnits="userSpaceOnUse" x1="14.2495" y1="341.2823" x2="243.9156" y2="111.6164" gradientTransform="matrix(1 0 0 -1 0 446)">
			<stop  offset="0.2822" style="stop-color:#FEBF88"/>
			<stop  offset="0.7426" style="stop-color:#FE8276"/>
		</linearGradient>
		<path class="st0" d="M141.7,355c0,0.5,0.1,0.7,0,0.9c-8.2,18.1-3,16.3-21,11.3c-44.3-12.3-74.8-40.3-89-84.4
			c-6.3-19.4-4.2-38.6,6-57.4c0.3,4.8,0,9,0.9,13c2.6,12.8,12.5,20,25.9,19.2C76.2,257,83.7,249,85,235.4
			c1.9-20.4-3.7-39.1-12.6-57.1c-3.8-7.7-8.5-15.1-11.6-23c-8.1-20.7-7.8-41.9-2.2-63.2C65.5,65.3,79.3,42.3,98,21
			c1.1,4.9,2,9,2.9,13.2c7,32.5,24.5,56.9,54.2,72.5c14.3,7.5,28.7,15.4,41.9,24.6c16.4,11.4,30.4,25.4,36.2,45.5
			c1,3.5,1.7,7.1,2.6,10.7c6.8-2.9,9.2-10.9,10-32.7c11,11.2,19.2,23.8,25.4,37.8c29.9,68-7.2,150.3-77.9,172.7
			c-8.3,2.6-17.1,3.9-25.7,5.4c-3.1,0.5-4.6,1.6-5.5,4.6c-1.8,5.8-3.9,11.5-6.3,17.1c-0.7,1.5-2.9,3.1-4.6,3.3
			c-4.9,0.4-9.8,0.1-15.1,0.1c1.2-2.1,2.3-4,3.4-6.1c11.7-21.7,17.8-45.2,22.7-69.1c0.4-1.8,0.4-3.7,1.1-5.5
			c3.9-10.7,0.6-19.8-6.2-28.1c-2.6-3.3-5.1-6.7-7.6-10.1c0.3-0.3,0.5-0.7,0.8-1c5.3,4.7,10.6,9.4,16.5,14.6
			c3.4-30.3,4.3-60-2.6-90.1c6.7,12.4,13.9,43.1,13.3,74.4c-0.5,25.4-4.8,50.2-10.1,76.4c11.2-7.7,19.2-16.2,25.4-26.4
			c14.3-23.3,17.3-48.6,12-74.8c-9.2-45.4-33.4-80.3-74.6-102.6c-1.9-1-3.9-1.9-6.5-3.1c0.2,1.5,0.1,2.4,0.5,2.9
			c13.1,19,14.3,40,8.7,61.3c-5.3,19.7-12.5,38.8-19.3,58.1c-5,14-9.3,28-5.6,43.1C112.6,329.6,123,345.3,141.7,355z"/>
	</g>
	
		<linearGradient id="SVGID_2_" gradientUnits="userSpaceOnUse" x1="166.8748" y1="383.9083" x2="221.1053" y2="329.6779" gradientTransform="matrix(1 0 0 -1 0 446)">
		<stop  offset="0.2822" style="stop-color:#FEBF88"/>
		<stop  offset="1" style="stop-color:#FE8276"/>
	</linearGradient>
	<path class="st1" d="M215,122.4c-4.1-14.4-13.9-21.2-26.1-25.6c-14.2-5.1-21.3-16.2-25.1-31.7c10.1,8.2,21.5,10.2,32.3,13.6
		C214.2,84.5,222.7,103.6,215,122.4z"/>
</g>
<g>
	<path class="st2" d="M425.7,208.5h-24.2l-15.6-75.8l-16.4,75.8h-24.3l-22.8-91.1h19.7l15.3,77.1l16.1-75.8h25.6l15.6,76l16.4-77.4
		h18.7L425.7,208.5z"/>
	<path class="st2" d="M461,208.5v-91.1h18.2v91.1H461z"/>
	<path class="st2" d="M565.3,208.5h-65.7v-91.1h18.2v75.9h47.5V208.5z"/>
	<path class="st2" d="M659.8,161.8c0,27.9-16.6,43.7-37.8,46.2c-4.6,0.5-6.7,0.5-11.6,0.5h-31.2v-91.1h31.4c4.9,0,7,0,11.6,0.5
		C643.5,120.5,659.8,133.9,659.8,161.8z M640.6,162c0-18-8.7-28.1-22.2-29.8c-3-0.4-5.7-0.5-9.8-0.5h-11.1v62.4h10.8
		c4,0,6.7,0,9.6-0.4C631.6,192,640.6,180.6,640.6,162z"/>
	<path class="st2" d="M694,155.7h41.6v14.4H694v38.4h-18.2v-91.1h64.4v14.3H694V155.7z"/>
	<path class="st2" d="M754.1,208.5v-91.1h18.2v91.1H754.1z"/>
	<path class="st2" d="M865.2,208.5h-19.9c-2.2-6.2-3.6-11.7-4.5-20.3c-1.2-9.8-4.9-15.7-12.3-16.2c-2.5-0.1-4.8-0.1-7.1-0.1h-10.6
		v36.7h-18.2v-91.1h33.3c5.3,0,8.7,0.1,13.2,0.7c13.2,1.6,23.9,8.4,23.9,24.2c0,11.7-7,19.1-17.8,22.2c9,3.4,12.4,11,13.5,21.1
		C859.8,196.6,861.5,203.4,865.2,208.5z M823.4,158.2c3.2,0,5.4,0,7.4-0.1c7.3-0.7,13.1-4.2,13.1-13.1s-4.9-12-12-12.9
		c-2.1-0.3-4.4-0.4-7.7-0.4h-13.3v26.5H823.4z"/>
	<path class="st2" d="M944.7,208.5h-65.7v-91.1h64.4v14.3h-46.2v24h42.9v14.4h-42.9v24h47.5V208.5z"/>
</g>
<g>
	<path class="st3" d="M399.6,252.7H381c-1.1-9.2-6.2-15-15.7-15c-7.3,0-12.8,3.4-12.8,10.8c0,7.7,4.9,11.5,19.4,14.9
		c20.1,4.6,29,13.9,29,28.5c0,17.2-15.7,26.9-33.7,26.9c-21.8,0-36-9.6-37.8-28.8h18.6c2,10,9.6,15.2,18.9,15.2
		c8.3,0,14.9-4.5,14.9-11.5c0-7.7-4.8-12.1-18.2-15.3c-18.6-4.5-30.4-11-30.4-27.7s15.2-26.7,32.6-26.7
		C387.8,224.1,397.7,236.5,399.6,252.7z"/>
	<path class="st3" d="M481.7,317H416v-91.1h64.4v14.3h-46.2v24h42.9v14.4h-42.9v24h47.5V317z"/>
	<path class="st3" d="M552.4,317l-37.5-69.2c0.5,9.9,0.7,20.3,0.7,28V317h-18.2v-91.1h24.2l38.3,70.5c-0.5-9.8-0.7-20.9-0.7-28.6
		v-41.8h18.1l0.1,91.1H552.4z"/>
	<path class="st3" d="M638,240.2V317h-18.2v-76.8h-30.9v-14.3h80v14.3H638z"/>
	<path class="st3" d="M679.9,317v-91.1h18.2V317H679.9z"/>
	<path class="st3" d="M773.5,317L736,247.8c0.5,9.9,0.7,20.3,0.7,28V317h-18.2v-91.1h24.2l38.3,70.5c-0.5-9.8-0.7-20.9-0.7-28.6
		v-41.8h18.1l0.1,91.1H773.5z"/>
	<path class="st3" d="M884.5,317h-65.7v-91.1h64.4v14.3h-46.2v24h42.9v14.4h-42.9v24h47.5V317z"/>
	<path class="st3" d="M965.8,317H900v-91.1h18.2v75.9h47.5V317z"/>
</g>
</svg>
