<?xml version="1.0" encoding="utf-8"?>
<!-- Generator: Adobe Illustrator 21.1.0, SVG Export Plug-In . SVG Version: 6.00 Build 0)  -->
<svg version="1.1" id="Livello_1" xmlns="http://www.w3.org/2000/svg" xmlns:xlink="http://www.w3.org/1999/xlink" x="0px" y="0px"
	 viewBox="0 0 1316 608.6" style="enable-background:new 0 0 1316 608.6;" xml:space="preserve">
<style type="text/css">
	.st0{fill:url(#SVGID_1_);}
	.st1{fill:url(#SVGID_2_);}
	.st2{fill:#FEBF88;}
	.st3{fill:#FE8276;}
</style>
<g>
	<g>
		
			<linearGradient id="SVGID_1_" gradientUnits="userSpaceOnUse" x1="523.7509" y1="449.7643" x2="753.2925" y2="679.3057" gradientTransform="matrix(1 0 0 1 0 -346)">
			<stop  offset="0.2822" style="stop-color:#FEBF88"/>
			<stop  offset="0.7426" style="stop-color:#FE8276"/>
		</linearGradient>
		<path class="st0" d="M651.2,354c0,0.5,0.1,0.7,0,0.9c-8.2,18.1-3,16.3-21,11.3c-44.3-12.3-74.8-40.3-89-84.4
			c-6.3-19.4-4.2-38.6,6-57.4c0.3,4.8,0,9,0.9,13c2.6,12.8,12.5,20,25.9,19.2c11.7-0.6,19.2-8.6,20.5-22.2
			c1.9-20.4-3.7-39.1-12.6-57.1c-3.8-7.7-8.5-15.1-11.6-23c-8.1-20.7-7.8-41.9-2.2-63.2c6.9-26.8,20.7-49.8,39.4-71.1
			c1.1,4.9,2,9,2.9,13.2c7,32.5,24.5,56.9,54.2,72.5c14.3,7.5,28.7,15.4,41.9,24.6c16.4,11.4,30.4,25.4,36.2,45.5
			c1,3.5,1.7,7.1,2.6,10.7c6.8-2.9,9.2-10.9,10-32.7c11,11.2,19.2,23.8,25.4,37.8c29.9,68-7.2,150.3-77.9,172.7
			c-8.3,2.6-17.1,3.9-25.7,5.4c-3.1,0.5-4.6,1.6-5.5,4.6c-1.8,5.8-3.9,11.5-6.3,17.1c-0.7,1.5-2.9,3.1-4.6,3.3
			c-4.9,0.4-9.8,0.1-15.1,0.1c1.2-2.1,2.3-4,3.4-6.1c11.7-21.7,17.8-45.2,22.7-69.1c0.4-1.8,0.4-3.7,1.1-5.5
			c3.9-10.7,0.6-19.8-6.2-28.1c-2.6-3.3-5.1-6.7-7.6-10.1c0.3-0.3,0.5-0.7,0.8-1c5.3,4.7,10.6,9.4,16.5,14.6
			c3.4-30.3,4.3-60-2.6-90.1c6.7,12.4,13.9,43.1,13.3,74.4c-0.5,25.4-4.8,50.2-10.1,76.4c11.2-7.7,19.2-16.2,25.4-26.4
			c14.3-23.3,17.3-48.6,12-74.8c-9.2-45.4-33.4-80.3-74.6-102.6c-1.9-1-3.9-1.9-6.5-3.1c0.2,1.5,0.1,2.4,0.5,2.9
			c13.1,19,14.3,40,8.7,61.3c-5.3,19.7-12.5,38.8-19.3,58.1c-5,14-9.3,28-5.6,43.1C622.1,328.6,632.5,344.3,651.2,354z"/>
	</g>
	
		<linearGradient id="SVGID_2_" gradientUnits="userSpaceOnUse" x1="676.374" y1="407.041" x2="730.624" y2="461.291" gradientTransform="matrix(1 0 0 1 0 -346)">
		<stop  offset="0.2822" style="stop-color:#FEBF88"/>
		<stop  offset="1" style="stop-color:#FE8276"/>
	</linearGradient>
	<path class="st1" d="M724.5,121.4c-4.1-14.4-13.9-21.2-26.1-25.6c-14.2-5.1-21.3-16.2-25.1-31.7c10.1,8.2,21.5,10.2,32.3,13.6
		C723.7,83.5,732.2,102.6,724.5,121.4z"/>
</g>
<g>
	<path class="st2" d="M120.2,512.5H96l-15.6-75.8L64,512.5H39.7l-22.8-91.1h19.7l15.3,77.1L68,422.7h25.6l15.6,76l16.4-77.4h18.7
		L120.2,512.5z"/>
	<path class="st2" d="M155.5,512.5v-91.1h18.2v91.1H155.5z"/>
	<path class="st2" d="M259.8,512.5h-65.7v-91.1h18.2v75.9h47.5V512.5z"/>
	<path class="st2" d="M354.3,465.8c0,27.9-16.6,43.7-37.8,46.2c-4.6,0.5-6.7,0.5-11.6,0.5h-31.2v-91.1h31.4c4.9,0,7,0,11.6,0.5
		C338,424.5,354.3,437.9,354.3,465.8z M335.1,466c0-18-8.7-28.1-22.2-29.8c-3-0.4-5.7-0.5-9.8-0.5H292v62.4h10.8c4,0,6.7,0,9.6-0.4
		C326.1,496,335.1,484.6,335.1,466z"/>
	<path class="st2" d="M388.5,459.7h41.6v14.4h-41.6v38.4h-18.2v-91.1h64.4v14.3h-46.2V459.7z"/>
	<path class="st2" d="M448.6,512.5v-91.1h18.2v91.1H448.6z"/>
	<path class="st2" d="M559.7,512.5h-19.9c-2.2-6.2-3.6-11.7-4.5-20.3c-1.2-9.8-4.9-15.7-12.3-16.2c-2.5-0.1-4.8-0.1-7.1-0.1h-10.6
		v36.7h-18.2v-91.1h33.3c5.3,0,8.7,0.1,13.2,0.7c13.2,1.6,23.9,8.4,23.9,24.2c0,11.7-7,19.1-17.8,22.2c9,3.4,12.4,11,13.5,21.1
		C554.3,500.6,556,507.4,559.7,512.5z M517.9,462.2c3.2,0,5.4,0,7.4-0.1c7.3-0.7,13.1-4.2,13.1-13.1c0-8.9-4.9-12-12-12.9
		c-2.1-0.3-4.4-0.4-7.7-0.4h-13.3v26.5H517.9z"/>
	<path class="st2" d="M639.2,512.5h-65.7v-91.1h64.4v14.3h-46.2v24h42.9v14.4h-42.9v24h47.5V512.5z"/>
</g>
<g>
	<path class="st3" d="M729.3,448.2h-18.6c-1.1-9.2-6.2-15-15.7-15c-7.3,0-12.8,3.4-12.8,10.8c0,7.7,4.9,11.5,19.4,14.9
		c20.1,4.6,29,13.9,29,28.5c0,17.2-15.7,26.9-33.7,26.9c-21.8,0-36-9.6-37.8-28.8h18.6c2,10,9.6,15.2,18.9,15.2
		c8.3,0,14.9-4.5,14.9-11.5c0-7.7-4.8-12.1-18.2-15.3c-18.6-4.5-30.4-11-30.4-27.7c0-16.7,15.2-26.7,32.6-26.7
		C717.5,419.6,727.4,432,729.3,448.2z"/>
	<path class="st3" d="M811.4,512.5h-65.7v-91.1h64.4v14.3h-46.2v24h42.9v14.4h-42.9v24h47.5L811.4,512.5L811.4,512.5z"/>
	<path class="st3" d="M882.1,512.5l-37.5-69.2c0.5,9.9,0.7,20.3,0.7,28v41.2h-18.2v-91.1h24.2l38.3,70.5c-0.5-9.8-0.7-20.9-0.7-28.6
		v-41.8H907l0.1,91.1L882.1,512.5L882.1,512.5z"/>
	<path class="st3" d="M967.7,435.7v76.8h-18.2v-76.8h-30.9v-14.3h80v14.3H967.7z"/>
	<path class="st3" d="M1009.6,512.5v-91.1h18.2v91.1H1009.6z"/>
	<path class="st3" d="M1103.2,512.5l-37.5-69.2c0.5,9.9,0.7,20.3,0.7,28v41.2h-18.2v-91.1h24.2l38.3,70.5
		c-0.5-9.8-0.7-20.9-0.7-28.6v-41.8h18.1l0.1,91.1L1103.2,512.5L1103.2,512.5z"/>
	<path class="st3" d="M1214.2,512.5h-65.7v-91.1h64.4v14.3h-46.2v24h42.9v14.4h-42.9v24h47.5V512.5z"/>
	<path class="st3" d="M1295.5,512.5h-65.8v-91.1h18.2v75.9h47.5L1295.5,512.5L1295.5,512.5z"/>
</g>
<g>
	<path class="st3" d="M290.8,584.5l7.3-41.4h6.6l-7.3,41.4H290.8z"/>
	<path class="st3" d="M341.4,584.5H332l-12.2-34.3l-5.9,34.3h-6.6l7.3-41.4h9.3l12.3,34.6l6.1-34.6h6.5L341.4,584.5z"/>
	<path class="st3" d="M385.5,584.5h-9.4l-12.2-34.3l-5.9,34.3h-6.6l7.3-41.4h9.3l12.3,34.6l6.1-34.6h6.5L385.5,584.5z"/>
	<path class="st3" d="M437.3,560.2c0,13.1-8,25.1-23.5,25.1c-11.4,0-17.5-8-17.5-17.9c0-13.2,8-25.1,23.5-25.1
		C431.2,542.3,437.3,550.3,437.3,560.2z M430.2,560.3c0-7.7-4.1-13-11.3-13c-10.6,0-15.5,11-15.5,20c0,7.7,4.1,13,11.3,13
		C425.3,580.3,430.2,569.3,430.2,560.3z"/>
	<path class="st3" d="M450.9,584.5l-7-41.4h7.1l5.3,36.4l18.4-36.4h7.3l-22.1,41.4H450.9z"/>
	<path class="st3" d="M486.9,570.8l-7,13.7h-7.3l22.1-41.4h9l7,41.4h-7.1l-2-13.7H486.9z M498.3,548.7l-8.6,16.9h11.2L498.3,548.7z"
		/>
	<path class="st3" d="M535.7,548.3l-6.4,36.2h-6.6l6.4-36.2h-14.5l1-5.2H551l-1,5.2H535.7z"/>
	<path class="st3" d="M549,584.5l7.3-41.4h6.6l-7.3,41.4H549z"/>
	<path class="st3" d="M599.7,584.5h-9.4L578,550.2l-5.9,34.3h-6.6l7.3-41.4h9.3l12.3,34.6l6.1-34.6h6.5L599.7,584.5z"/>
	<path class="st3" d="M649.5,556.4l-0.1,0.6h-6.6v-0.6c0-6.5-2.9-9.1-9.2-9.1c-9.1,0-16,8.6-16,20.2c0,7.9,3.7,12.8,9.8,12.8
		c6.1,0,11.3-4.4,12.8-11H631l1-5.3h15.7l-3.6,20.5h-5.5l1-7l-2.5,4c-2.8,2.5-6.5,3.8-11.2,3.8c-10.1,0-15.5-7-15.5-17
		c0-15.3,10.9-26.1,24.2-26.1C645.4,542.3,650.1,548.3,649.5,556.4z"/>
	<path class="st2" d="M701.5,553.4c0,8.6-6.4,13.7-13.4,14.6c-2,0.2-3.5,0.2-5.7,0.2h-7l-2.9,16.3H666l7.3-41.4h13.4
		c2.2,0,3.7,0,5.6,0.2C697.8,544.1,701.5,547.5,701.5,553.4z M694.4,554.1c0-3.4-1.8-5-4.1-5.5c-1-0.2-2.5-0.2-4.2-0.2h-7.1
		l-2.5,14.4h7.1c1.7,0,3.1-0.1,4.2-0.2C691.3,561.9,694.4,559.4,694.4,554.1z"/>
	<path class="st2" d="M728.5,564.5c3.5,0.8,4.7,3.7,4.7,13c0,3.1,0.3,5.5,1.1,7h-7.1c-0.4-1.8-0.5-3.9-0.6-10.8
		c-0.1-3.7-1.1-6.2-4.4-6.4c-1-0.1-2-0.1-3.1-0.1h-6.5l-3.1,17.3h-6.6l7.3-41.4h14.3c2.2,0,3.7,0,5.7,0.2c5.1,0.7,8.8,3.4,8.8,9
		C739,559.4,734.2,563.3,728.5,564.5z M731.8,553.7c0-3.2-1.9-4.8-4.8-5.2c-1-0.2-2.1-0.2-3.8-0.2h-7.3l-2.5,13.8h6.9
		c1.7,0,2.7,0,3.8-0.1C728.4,561.6,731.8,559,731.8,553.7z"/>
	<path class="st2" d="M751.5,561.2h19.7l-0.9,5.2h-19.8l-2.2,12.8h22l-1,5.3h-28.6l7.3-41.4h28l-1,5.2h-21.4L751.5,561.2z"/>
	<path class="st2" d="M787.6,584.5l-7-41.4h7.1l5.3,36.4l18.4-36.4h7.3l-22.1,41.4H787.6z"/>
	<path class="st2" d="M828.1,561.2h19.7l-0.9,5.2h-19.8l-2.2,12.8h22l-1,5.3h-28.6l7.3-41.4h28l-1,5.2h-21.4L828.1,561.2z"/>
	<path class="st2" d="M887.7,584.5h-9.4L866,550.2l-5.9,34.3h-6.6l7.3-41.4h9.3l12.3,34.6l6.1-34.6h6.5L887.7,584.5z"/>
	<path class="st2" d="M921.3,548.3l-6.4,36.2h-6.6l6.4-36.2h-14.5l1-5.2h35.4l-1,5.2H921.3z"/>
	<path class="st2" d="M934.6,584.5l7.3-41.4h6.6l-7.3,41.4H934.6z"/>
	<path class="st2" d="M993,560.2c0,13.1-8,25.1-23.5,25.1c-11.4,0-17.5-8-17.5-17.9c0-13.2,8-25.1,23.5-25.1
		C986.9,542.3,993,550.3,993,560.2z M985.9,560.3c0-7.7-4.1-13-11.3-13c-10.6,0-15.5,11-15.5,20c0,7.7,4.1,13,11.3,13
		C981,580.3,985.9,569.3,985.9,560.3z"/>
	<path class="st2" d="M1030.9,584.5h-9.4l-12.2-34.3l-5.9,34.3h-6.6l7.3-41.4h9.3l12.3,34.6l6.1-34.6h6.5L1030.9,584.5z"/>
</g>
</svg>
