<?xml version="1.0" encoding="utf-8"?>
<!-- Generator: Adobe Illustrator 21.1.0, SVG Export Plug-In . SVG Version: 6.00 Build 0)  -->
<svg version="1.1" id="Livello_1" xmlns="http://www.w3.org/2000/svg" xmlns:xlink="http://www.w3.org/1999/xlink" x="0px" y="0px"
	 viewBox="0 0 612 792" style="enable-background:new 0 0 612 792;" xml:space="preserve">
<style type="text/css">
	.st0{fill:url(#SVGID_1_);}
	.st1{fill:url(#SVGID_2_);}
</style>
<g>
	<g>
		<linearGradient id="SVGID_1_" gradientUnits="userSpaceOnUse" x1="13.3813" y1="180.1533" x2="491.0503" y2="657.8222">
			<stop  offset="0.2822" style="stop-color:#FEBF88"/>
			<stop  offset="0.7426" style="stop-color:#FE8276"/>
		</linearGradient>
		<path class="st0" d="M278.4,700.7c0.1,1.1,0.2,1.5,0.1,1.8c-17.1,37.6-6.2,34-43.6,23.6c-92.2-25.6-155.5-83.8-185.2-175.5
			c-13.1-40.4-8.7-80.3,12.4-119.3c0.6,10,0.1,18.8,1.8,27.1c5.4,26.7,26.1,41.7,53.8,40c24.5-1.5,40.2-18.2,42.9-46.4
			c4-42.4-7.6-81.4-26.3-118.8c-8-16-17.6-31.4-24.1-47.9c-16.8-43.1-16.2-87.2-4.6-131.5C120,98.1,148.6,50.3,187.5,6
			c2.2,10.1,4.2,18.7,6.1,27.4c14.6,67.5,51,118.3,112.8,150.9c29.8,15.7,59.6,32,87.2,51.2c34.1,23.7,63.2,52.9,75.4,94.7
			c2.1,7.3,3.6,14.8,5.4,22.3c14.2-6.1,19.2-22.6,20.9-68.1c22.9,23.2,40,49.5,52.8,78.7c62.1,141.4-14.9,312.6-162.1,359.3
			c-17.3,5.5-35.6,8.1-53.5,11.2c-6.4,1.1-9.6,3.3-11.5,9.6c-3.7,12.1-8.1,24-13.2,35.5c-1.4,3.2-6.1,6.5-9.6,6.8
			c-10.1,0.9-20.3,0.3-31.5,0.3c2.4-4.4,4.8-8.4,7-12.6c24.3-45.1,37.1-94,47.3-143.7c0.8-3.8,0.9-7.8,2.2-11.4
			c8.1-22.3,1.2-41.1-12.9-58.5c-5.5-6.8-10.6-14-15.8-21.1c0.6-0.7,1.1-1.4,1.7-2.1c11.1,9.8,22.1,19.5,34.3,30.3
			c7-63,8.9-124.7-5.4-187.4c13.9,25.8,28.9,89.7,27.7,154.8c-1,52.8-9.9,104.5-21.1,159c23.3-16,39.9-33.8,52.8-54.9
			c29.7-48.4,36-101.1,24.9-155.6c-19.2-94.4-69.5-167-155.2-213.4c-3.9-2.1-8.1-3.9-13.6-6.5c0.4,3.1,0.2,4.9,1,6
			c27.2,39.5,29.8,83.3,18,127.5c-11,41-26,80.8-40.2,120.9c-10.3,29.2-19.3,58.3-11.6,89.6C217.9,647.9,239.5,680.6,278.4,700.7z"
			/>
	</g>
	<linearGradient id="SVGID_2_" gradientUnits="userSpaceOnUse" x1="330.8736" y1="91.5094" x2="443.6238" y2="204.2596">
		<stop  offset="0.2822" style="stop-color:#FEBF88"/>
		<stop  offset="1" style="stop-color:#FE8276"/>
	</linearGradient>
	<path class="st1" d="M430.9,217c-8.5-30-28.9-44-54.2-53.2c-29.6-10.7-44.3-33.8-52.2-66c21.1,17.1,44.7,21.2,67.2,28.3
		C429.2,138.1,446.9,177.8,430.9,217z"/>
</g>
</svg>
